<svg width="50" height="50" viewBox="0 0 50 50" fill="none" xmlns="http://www.w3.org/2000/svg">
<path d="M24.9378 45.8332C36.4438 45.8332 45.7712 36.5058 45.7712 24.9998C45.7712 13.4939 36.4438 4.1665 24.9378 4.1665C13.4319 4.1665 4.10449 13.4939 4.10449 24.9998C4.10449 36.5058 13.4319 45.8332 24.9378 45.8332Z" stroke="#4CB6D1" stroke-width="1.5" stroke-linecap="round" stroke-linejoin="round"/>
<path d="M22.3337 30.271V19.7293C22.3337 18.7293 21.917 18.3335 20.8545 18.3335H18.1462C17.0837 18.3335 16.667 18.7293 16.667 19.7293V30.271C16.667 31.271 17.0837 31.6668 18.1462 31.6668H20.8337C21.917 31.6668 22.3337 31.271 22.3337 30.271Z" stroke="#4CB6D1" stroke-width="1.5" stroke-linecap="round" stroke-linejoin="round"/>
<path d="M33.3333 30.271V19.7293C33.3333 18.7293 32.9167 18.3335 31.8542 18.3335H29.1667C28.1042 18.3335 27.6875 18.7293 27.6875 19.7293V30.271C27.6875 31.271 28.1042 31.6668 29.1667 31.6668H31.8542C32.9167 31.6668 33.3333 31.271 33.3333 30.271Z" stroke="#4CB6D1" stroke-width="1.5" stroke-linecap="round" stroke-linejoin="round"/>
</svg>
