<svg width="17" height="17" viewBox="0 0 17 17" fill="none" xmlns="http://www.w3.org/2000/svg">
<path opacity="0.4" d="M8.50033 15.5832C12.4123 15.5832 15.5837 12.4119 15.5837 8.49984C15.5837 4.58782 12.4123 1.4165 8.50033 1.4165C4.58831 1.4165 1.41699 4.58782 1.41699 8.49984C1.41699 12.4119 4.58831 15.5832 8.50033 15.5832Z" fill="black" fill-opacity="0.5"/>
<path d="M9.25072 8.49988L10.8799 6.87072C11.0853 6.6653 11.0853 6.3253 10.8799 6.11988C10.6745 5.91447 10.3345 5.91447 10.129 6.11988L8.49988 7.74905L6.87072 6.11988C6.6653 5.91447 6.3253 5.91447 6.11988 6.11988C5.91447 6.3253 5.91447 6.6653 6.11988 6.87072L7.74905 8.49988L6.11988 10.129C5.91447 10.3345 5.91447 10.6745 6.11988 10.8799C6.22613 10.9861 6.36072 11.0357 6.4953 11.0357C6.62988 11.0357 6.76447 10.9861 6.87072 10.8799L8.49988 9.25072L10.129 10.8799C10.2353 10.9861 10.3699 11.0357 10.5045 11.0357C10.639 11.0357 10.7736 10.9861 10.8799 10.8799C11.0853 10.6745 11.0853 10.3345 10.8799 10.129L9.25072 8.49988Z" fill="black" fill-opacity="0.5"/>
</svg>
