<svg width="15" height="15" viewBox="0 0 15 15" fill="none" xmlns="http://www.w3.org/2000/svg">
<path d="M5.75029 9.2373L7.36279 10.6498C7.43779 10.7186 7.55654 10.7186 7.63154 10.6498L9.24404 9.2373C9.66279 8.86855 9.71904 8.24355 9.36904 7.80605C9.01904 7.36855 8.38154 7.2873 7.93779 7.6248L7.50029 7.9623L7.05654 7.63105C6.60654 7.29355 5.97529 7.3748 5.62529 7.8123C5.27529 8.24355 5.33154 8.8748 5.75029 9.2373Z" stroke="#28A0BD" stroke-width="1.3" stroke-linecap="round" stroke-linejoin="round"/>
<path d="M1.25 8.1375V4.375C1.25 1.875 1.875 1.25 4.375 1.25H5.3125C6.25 1.25 6.45625 1.525 6.8125 2L7.75 3.25C7.9875 3.5625 8.125 3.75 8.75 3.75H10.625C13.125 3.75 13.75 4.375 13.75 6.875" stroke="#28A0BD" stroke-width="1.3" stroke-miterlimit="10" stroke-linecap="round" stroke-linejoin="round"/>
<path d="M13.75 9.36914V10.6254C13.75 13.1254 13.125 13.7504 10.625 13.7504H4.375C1.875 13.7504 1.25 13.1254 1.25 10.6254" stroke="#28A0BD" stroke-width="1.3" stroke-miterlimit="10" stroke-linecap="round" stroke-linejoin="round"/>
</svg>
