<svg width="15" height="15" viewBox="0 0 15 15" fill="none" xmlns="http://www.w3.org/2000/svg">
<path d="M9.375 7.5C9.375 6.4625 8.5375 5.625 7.5 5.625C6.4625 5.625 5.625 6.4625 5.625 7.5C5.625 8.5375 6.4625 9.375 7.5 9.375C7.75625 9.375 8.00625 9.325 8.23125 9.225" stroke="#28A0BD" stroke-miterlimit="10" stroke-linecap="round" stroke-linejoin="round"/>
<path d="M4.2998 12.8627L4.98105 13.2564C5.4748 13.5502 6.1123 13.3752 6.40605 12.8814L6.4748 12.7627C7.0373 11.7814 7.9623 11.7814 8.53105 12.7627L8.5998 12.8814C8.89355 13.3752 9.53106 13.5502 10.0248 13.2564L11.1061 12.6377C11.6748 12.3127 11.8686 11.5814 11.5436 11.0189C10.9748 10.0377 11.4373 9.2377 12.5686 9.2377C13.2186 9.2377 13.7561 8.70645 13.7561 8.0502V6.9502C13.7561 6.3002 13.2248 5.7627 12.5686 5.7627C11.9373 5.7627 11.5123 5.5127 11.3623 5.11895C11.2436 4.8127 11.2936 4.4127 11.5436 3.98145C11.8686 3.4127 11.6748 2.6877 11.1061 2.3627L10.5998 2.0752" stroke="#28A0BD" stroke-miterlimit="10" stroke-linecap="round" stroke-linejoin="round"/>
<path d="M8.525 2.2374C7.9625 3.21865 7.0375 3.21865 6.46875 2.2374L6.4 2.11865C6.1125 1.6249 5.475 1.4499 4.98125 1.74365L3.9 2.3624C3.33125 2.6874 3.1375 3.41865 3.4625 3.9874C4.03125 4.9624 3.56875 5.7624 2.4375 5.7624C1.7875 5.7624 1.25 6.29365 1.25 6.9499V8.0499C1.25 8.6999 1.78125 9.2374 2.4375 9.2374C3.56875 9.2374 4.03125 10.0374 3.4625 11.0186" stroke="#28A0BD" stroke-miterlimit="10" stroke-linecap="round" stroke-linejoin="round"/>
</svg>
