<svg width="24" height="24" viewBox="0 0 24 24" fill="none" xmlns="http://www.w3.org/2000/svg">
<path d="M9 15.6302L9 16.5902C9 19.5702 11.07 20.7102 13.59 19.1302L16.51 17.3002C16.83 17.1102 17.2 17.0002 17.57 17.0002L19 17.0002C21 17.0002 22 16.0002 22 14.0002L22 10.0002C22 8.00021 21 7.00021 19 7.00021L17 7.00021" stroke="#28A0BD" stroke-width="1.5" stroke-linecap="round" stroke-linejoin="round"/>
<path d="M13.5898 4.86981C11.0698 3.28981 8.99984 4.4398 8.99984 7.4098L8.99984 11.0498" stroke="#28A0BD" stroke-width="1.5" stroke-linecap="round" stroke-linejoin="round"/>
<path d="M5.19 14.5801C4.29 12.4301 4.56 9.92008 6 8.00008" stroke="#28A0BD" stroke-width="1.5" stroke-linecap="round" stroke-linejoin="round"/>
<path d="M2.84992 16.2002C1.37992 12.7102 1.81992 8.6302 4.16992 5.5002" stroke="#28A0BD" stroke-width="1.5" stroke-linecap="round" stroke-linejoin="round"/>
<path d="M2 22L22 2" stroke="#28A0BD" stroke-width="1.5" stroke-linecap="round" stroke-linejoin="round"/>
</svg>
