<svg width="24" height="24" viewBox="0 0 24 24" fill="none" xmlns="http://www.w3.org/2000/svg">
<path d="M22 14.0002L22 10.0002C22 8.00021 21 7.00021 19 7.00021L17.57 7.00021C17.2 7.00021 16.83 6.89021 16.51 6.70021L13.59 4.87021C11.07 3.29021 9 4.44021 9 7.41021L9 16.5902C9 19.5702 11.07 20.7102 13.59 19.1302L16.51 17.3002C16.83 17.1102 17.2 17.0002 17.57 17.0002L19 17.0002C21 17.0002 22 16.0002 22 14.0002Z" stroke="#28A0BD" stroke-width="1.5"/>
<path d="M6 16C4.22 13.63 4.22 10.37 6 8" stroke="#28A0BD" stroke-width="1.5" stroke-linecap="round" stroke-linejoin="round"/>
<path d="M4.16992 18.5C1.27992 14.65 1.27992 9.35 4.16992 5.5" stroke="#28A0BD" stroke-width="1.5" stroke-linecap="round" stroke-linejoin="round"/>
</svg>
